<?xml version="1.0" encoding="UTF-8"?>
<svg width="228px" height="33px" viewBox="0 0 228 33" version="1.1" xmlns="http://www.w3.org/2000/svg" xmlns:xlink="http://www.w3.org/1999/xlink">
    <!-- Generator: Sketch 52.2 (67145) - http://www.bohemiancoding.com/sketch -->
    <title>logo</title>
    <desc>Created with Sketch.</desc>
    <g id="Website" stroke="none" stroke-width="1" fill="none" fill-rule="evenodd">
        <g id="papers-home" transform="translate(-255.000000, -44.000000)" fill="#233141">
            <g id="logo" transform="translate(255.000000, 41.000000)">
                <path d="M148.269531,26.2866211 C149.45899,26.2866211 150.447831,25.7886606 151.236084,24.7927246 C152.024337,23.7967886 152.418457,22.3076271 152.418457,20.3251953 C152.418457,19.1168559 152.243817,18.0784549 151.894531,17.2099609 C151.233721,15.5390541 150.025399,14.7036133 148.269531,14.7036133 C146.504223,14.7036133 145.295902,15.5862542 144.644531,17.3515625 C144.295246,18.2955776 144.120605,19.4944589 144.120605,20.9482422 C144.120605,22.118821 144.295246,23.114742 144.644531,23.9360352 C145.305342,25.5031003 146.513663,26.2866211 148.269531,26.2866211 Z M141.670898,12.9052734 L144.148926,12.9052734 L144.148926,14.9160156 C144.658694,14.2268846 145.215655,13.693524 145.819824,13.315918 C146.678878,12.7495089 147.688959,12.4663086 148.850098,12.4663086 C150.568205,12.4663086 152.026687,13.1247493 153.225586,14.4416504 C154.424485,15.7585515 155.023926,17.6394735 155.023926,20.0844727 C155.023926,23.3885256 154.160165,25.7485281 152.432617,27.1645508 C151.33756,28.0613652 150.063158,28.5097656 148.609375,28.5097656 C147.467117,28.5097656 146.508956,28.2596054 145.734863,27.7592773 C145.281736,27.4760728 144.776695,26.9899123 144.219727,26.3007812 L144.219727,34.0463867 L141.670898,34.0463867 L141.670898,12.9052734 Z M159.95166,23.9643555 C159.95166,24.7006873 160.2207,25.2812479 160.758789,25.7060547 C161.296878,26.1308615 161.934078,26.3432617 162.67041,26.3432617 C163.567225,26.3432617 164.435705,26.1355815 165.275879,25.7202148 C166.691902,25.0310838 167.399902,23.9030026 167.399902,22.3359375 L167.399902,20.2827148 C167.088377,20.480958 166.687177,20.6461582 166.196289,20.7783203 C165.705401,20.9104824 165.223961,21.0048825 164.751953,21.0615234 L163.208496,21.2597656 C162.283361,21.3824876 161.589521,21.5760078 161.126953,21.840332 C160.343421,22.2840191 159.95166,22.9920199 159.95166,23.9643555 Z M166.125488,18.8100586 C166.710778,18.7345374 167.102538,18.4890971 167.300781,18.0737305 C167.414063,17.8471668 167.470703,17.5214865 167.470703,17.0966797 C167.470703,16.2281858 167.161543,15.5980651 166.543213,15.2062988 C165.924883,14.8145325 165.039882,14.6186523 163.888184,14.6186523 C162.557122,14.6186523 161.613121,14.9773727 161.056152,15.6948242 C160.744627,16.0913106 160.541667,16.6813112 160.447266,17.4648438 L158.068359,17.4648438 C158.11556,15.5956938 158.722081,14.2953324 159.887939,13.5637207 C161.053798,12.832109 162.40608,12.4663086 163.944824,12.4663086 C165.729013,12.4663086 167.178054,12.8061489 168.291992,13.4858398 C169.39649,14.1655307 169.94873,15.2228118 169.94873,16.6577148 L169.94873,25.3945312 C169.94873,25.6588555 170.003011,25.8712557 170.111572,26.0317383 C170.220134,26.1922209 170.449054,26.2724609 170.79834,26.2724609 C170.911622,26.2724609 171.039062,26.2653809 171.180664,26.2512207 C171.322266,26.2370605 171.473306,26.2158205 171.633789,26.1875 L171.633789,28.0708008 C171.237303,28.1840826 170.935222,28.2548827 170.727539,28.2832031 C170.519856,28.3115236 170.236655,28.3256836 169.87793,28.3256836 C168.999996,28.3256836 168.362795,28.0141633 167.966309,27.3911133 C167.758625,27.060708 167.612305,26.5934275 167.527344,25.9892578 C167.008135,26.6689487 166.262375,27.2589493 165.290039,27.7592773 C164.317703,28.2596054 163.246262,28.5097656 162.075684,28.5097656 C160.669101,28.5097656 159.51978,28.0826052 158.627686,27.2282715 C157.735591,26.3739378 157.289551,25.3048567 157.289551,24.0209961 C157.289551,22.6144135 157.728511,21.5240924 158.606445,20.75 C159.484379,19.9759076 160.636061,19.4991871 162.061523,19.3198242 L166.125488,18.8100586 Z M180.526367,26.2866211 C181.715826,26.2866211 182.704667,25.7886606 183.49292,24.7927246 C184.281173,23.7967886 184.675293,22.3076271 184.675293,20.3251953 C184.675293,19.1168559 184.500653,18.0784549 184.151367,17.2099609 C183.490557,15.5390541 182.282235,14.7036133 180.526367,14.7036133 C178.761059,14.7036133 177.552738,15.5862542 176.901367,17.3515625 C176.552082,18.2955776 176.377441,19.4944589 176.377441,20.9482422 C176.377441,22.118821 176.552082,23.114742 176.901367,23.9360352 C177.562178,25.5031003 178.770499,26.2866211 180.526367,26.2866211 Z M173.927734,12.9052734 L176.405762,12.9052734 L176.405762,14.9160156 C176.91553,14.2268846 177.47249,13.693524 178.07666,13.315918 C178.935714,12.7495089 179.945795,12.4663086 181.106934,12.4663086 C182.825041,12.4663086 184.283523,13.1247493 185.482422,14.4416504 C186.681321,15.7585515 187.280762,17.6394735 187.280762,20.0844727 C187.280762,23.3885256 186.417001,25.7485281 184.689453,27.1645508 C183.594396,28.0613652 182.319994,28.5097656 180.866211,28.5097656 C179.723953,28.5097656 178.765792,28.2596054 177.991699,27.7592773 C177.538572,27.4760728 177.033531,26.9899123 176.476562,26.3007812 L176.476562,34.0463867 L173.927734,34.0463867 L173.927734,12.9052734 Z M196.569824,12.4946289 C197.646001,12.4946289 198.689123,12.7471492 199.699219,13.2521973 C200.709315,13.7572454 201.478676,14.410966 202.007324,15.2133789 C202.517092,15.9780312 202.856933,16.8701121 203.026855,17.8896484 C203.177898,18.5882196 203.253418,19.7021408 203.253418,21.2314453 L192.137695,21.2314453 C192.184896,22.77019 192.548336,24.0044713 193.228027,24.9343262 C193.907718,25.8641811 194.960279,26.3291016 196.385742,26.3291016 C197.716804,26.3291016 198.778805,25.8901411 199.571777,25.012207 C200.024905,24.5024389 200.345865,23.9124382 200.534668,23.2421875 L203.041016,23.2421875 C202.974935,23.7991564 202.755454,24.4198371 202.382568,25.104248 C202.009682,25.788659 201.591962,26.3479796 201.129395,26.7822266 C200.355302,27.5374387 199.397141,28.0471992 198.254883,28.3115234 C197.641273,28.4625659 196.947432,28.5380859 196.17334,28.5380859 C194.28531,28.5380859 192.685228,27.8513252 191.373047,26.4777832 C190.060866,25.1042412 189.404785,23.1808392 189.404785,20.7075195 C189.404785,18.2719605 190.065586,16.2942784 191.387207,14.7744141 C192.708828,13.2545497 194.43635,12.4946289 196.569824,12.4946289 Z M200.633789,19.206543 C200.529947,18.1020453 200.289227,17.2194043 199.911621,16.5585938 C199.21305,15.3313741 198.047209,14.7177734 196.414062,14.7177734 C195.243484,14.7177734 194.261723,15.1402139 193.46875,15.9851074 C192.675777,16.830001 192.255697,17.9038021 192.208496,19.206543 L200.633789,19.206543 Z M206.453613,12.8344727 L208.875,12.8344727 L208.875,15.4541016 C209.073243,14.9443334 209.559404,14.3236527 210.333496,13.592041 C211.107589,12.8604293 211.999669,12.4946289 213.009766,12.4946289 C213.056966,12.4946289 213.137206,12.4993489 213.250488,12.5087891 C213.36377,12.5182292 213.55729,12.5371092 213.831055,12.5654297 L213.831055,15.2558594 C213.680012,15.2275389 213.540772,15.2086589 213.41333,15.1992188 C213.285888,15.1897786 213.146648,15.1850586 212.995605,15.1850586 C211.711745,15.1850586 210.725264,15.598059 210.036133,16.4240723 C209.347002,17.2500855 209.002441,18.2011665 209.002441,19.2773438 L209.002441,28 L206.453613,28 L206.453613,12.8344727 Z M217.555176,23.2421875 C217.630697,24.0918011 217.843097,24.7431618 218.192383,25.1962891 C218.834313,26.0175822 219.948234,26.4282227 221.53418,26.4282227 C222.478195,26.4282227 223.308916,26.2229024 224.026367,25.8122559 C224.743819,25.4016093 225.102539,24.7667686 225.102539,23.9077148 C225.102539,23.2563444 224.814619,22.7607439 224.23877,22.4208984 C223.870604,22.2132151 223.143723,21.9724949 222.058105,21.6987305 L220.033203,21.1889648 C218.739902,20.8679997 217.786461,20.5092793 217.172852,20.112793 C216.077794,19.4236619 215.530273,18.4702209 215.530273,17.2524414 C215.530273,15.8175384 216.047114,14.6564172 217.080811,13.769043 C218.114507,12.8816687 219.504549,12.4379883 221.250977,12.4379883 C223.535493,12.4379883 225.182775,13.108229 226.192871,14.4487305 C226.825361,15.2983441 227.132162,16.214025 227.113281,17.1958008 L224.706055,17.1958008 C224.658854,16.6199515 224.455894,16.096031 224.097168,15.6240234 C223.511879,14.9537727 222.497078,14.6186523 221.052734,14.6186523 C220.089839,14.6186523 219.360598,14.8027325 218.86499,15.1708984 C218.369382,15.5390643 218.121582,16.0252248 218.121582,16.6293945 C218.121582,17.2902051 218.447262,17.8188457 219.098633,18.215332 C219.476239,18.4513358 220.033199,18.659016 220.769531,18.8383789 L222.45459,19.2490234 C224.285979,19.6927106 225.51318,20.122231 226.13623,20.5375977 C227.127446,21.1889681 227.623047,22.2132092 227.623047,23.6103516 C227.623047,24.9602932 227.110926,26.1261344 226.08667,27.1079102 C225.062413,28.0896859 223.502452,28.5805664 221.406738,28.5805664 C219.150542,28.5805664 217.55282,28.0684459 216.613525,27.0441895 C215.67423,26.019933 215.17155,24.7526117 215.105469,23.2421875 L217.555176,23.2421875 Z" id="LearnMore-Copy-5"></path>
                <path d="M126.787307,24.3072227 C126.787307,26.2000586 125.082863,27.4998504 122.847801,27.4998504 C121.228077,27.4998504 119.970645,26.6805134 119.970645,25.239149 L119.970645,25.1834118 C119.970645,23.6294582 121.255946,22.6964172 123.435271,22.6964172 C124.775193,22.6964172 125.921151,22.9516937 126.787307,23.2905759 L126.787307,24.3072227 Z M128.408145,16.2264412 C127.373662,15.1529425 125.72607,14.5598985 123.518877,14.5598985 C121.590369,14.5598985 120.165726,14.8987808 118.768951,15.4360875 C118.266201,15.6333973 117.847058,16.1695893 117.847058,16.7916166 C117.847058,17.5830851 118.490265,18.2039976 119.271701,18.2039976 C119.440027,18.2039976 119.607239,18.176129 119.802319,18.1192771 C120.725327,17.7525262 121.786564,17.5262331 123.071864,17.5262331 C125.446269,17.5262331 126.73157,18.6565838 126.73157,20.7757128 L126.73157,21.1424636 C125.585613,20.7757128 124.412902,20.5215511 122.764195,20.5215511 C119.160226,20.5215511 116.673232,22.1033732 116.673232,25.3249843 L116.673232,25.3807215 C116.673232,28.3760395 119.132358,29.986845 121.898038,29.986845 C124.160969,29.986845 125.698202,29.0259354 126.703701,27.8108641 L126.703701,28.3760395 C126.703701,29.1385246 127.373662,29.8174039 128.352408,29.8174039 C129.274301,29.8174039 130,29.110656 130,28.1787297 L130,20.83145 C130,18.8828769 129.49725,17.29994 128.408145,16.2264412 Z M113.209721,8.90925959 C112.259959,8.90925959 111.533146,9.6717447 111.533146,10.6036709 L111.533146,28.1218778 C111.533146,29.0827874 112.287828,29.8174039 113.209721,29.8174039 C114.159483,29.8174039 114.914165,29.0827874 114.914165,28.1218778 L114.914165,10.6036709 C114.914165,9.6717447 114.159483,8.90925959 113.209721,8.90925959 Z M106.197979,22.3017977 C106.197979,24.8723981 104.465667,27.0205104 101.727855,27.0205104 C99.1015172,27.0205104 97.2298615,24.8445295 97.2298615,22.2449458 L97.2298615,22.1880938 C97.2298615,19.5896248 98.9621742,17.4415125 101.672118,17.4415125 C104.326324,17.4415125 106.197979,19.6163787 106.197979,22.2449458 L106.197979,22.3017977 Z M101.727855,14.4461946 C97.2019929,14.4461946 93.848842,17.9788193 93.848842,22.2449458 L93.848842,22.3017977 C93.848842,26.5389409 97.1741243,30.0147136 101.672118,30.0147136 C106.225848,30.0147136 109.577884,26.4832036 109.577884,22.2449458 L109.577884,22.1880938 C109.577884,17.9219673 106.253717,14.4461946 101.727855,14.4461946 Z M89.5191751,22.3017977 C89.5191751,24.8723981 87.7868625,27.0205104 85.0490504,27.0205104 C82.4227128,27.0205104 80.5510571,24.8445295 80.5510571,22.2449458 L80.5510571,22.1880938 C80.5510571,19.5896248 82.2833698,17.4415125 84.9933132,17.4415125 C87.6475194,17.4415125 89.5191751,19.6163787 89.5191751,22.2449458 L89.5191751,22.3017977 Z M85.0490504,14.4461946 C80.5231885,14.4461946 77.1700377,17.9788193 77.1700377,22.2449458 L77.1700377,22.3017977 C77.1700377,26.5389409 80.4953199,30.0147136 84.9933132,30.0147136 C89.5470437,30.0147136 92.8990799,26.4832036 92.8990799,22.2449458 L92.8990799,22.1880938 C92.8990799,17.9219673 89.5749123,14.4461946 85.0490504,14.4461946 Z M72.7288963,22.2449458 C72.7288963,25.1834118 70.829372,27.0205104 68.5107039,27.0205104 C66.2199043,27.0205104 64.2077908,25.0986912 64.2077908,22.2449458 L64.2077908,22.1880938 C64.2077908,19.3343484 66.2199043,17.4125292 68.5107039,17.4125292 C70.8015034,17.4125292 72.7288963,19.3064798 72.7288963,22.1880938 L72.7288963,22.2449458 Z M69.3200082,14.4461946 C66.9177342,14.4461946 65.3816166,15.6902492 64.2913966,17.2442028 L64.2913966,10.6036709 C64.2913966,9.64276134 63.5378295,8.90925959 62.5869526,8.90925959 C61.6371904,8.90925959 60.9114919,9.64276134 60.9114919,10.6036709 L60.9114919,28.1218778 C60.9114919,29.053804 61.665059,29.8174039 62.5869526,29.8174039 C63.5378295,29.8174039 64.2913966,29.053804 64.2913966,28.1218778 L64.2913966,27.3593927 C65.3258794,28.7427904 66.861997,29.986845 69.3200082,29.986845 C72.8125021,29.986845 76.165653,27.1888368 76.165653,22.2449458 L76.165653,22.1880938 C76.165653,17.2152194 72.7846335,14.4461946 69.3200082,14.4461946 Z M48.2557997,21.171447 C48.5634692,18.8538936 50.015981,17.2442028 52.0838317,17.2442028 C54.318894,17.2442028 55.6030795,18.9664828 55.8271431,21.171447 L48.2557997,21.171447 Z M52.1117003,14.4461946 C47.8923931,14.4461946 44.9037636,17.9498359 44.9037636,22.2170772 L44.9037636,22.2728144 C44.9037636,26.8789379 48.2000625,30.0147136 52.4739922,30.0147136 C54.7659065,30.0147136 56.4413672,29.2522285 57.7824046,28.0371572 C58.0343368,27.7829955 58.2294171,27.4151299 58.2294171,26.991527 C58.2294171,26.2000586 57.6430616,25.6070146 56.8883797,25.6070146 C56.4971044,25.6070146 56.2741556,25.7207185 56.0222233,25.9180283 C55.0724612,26.7094967 53.9554874,27.2178201 52.5308442,27.2178201 C50.351519,27.2178201 48.647075,25.8611763 48.2836683,23.4310337 L57.5315871,23.4310337 C58.3977435,23.4310337 59.123442,22.7532692 59.123442,21.7923596 C59.123442,18.3455702 56.8047739,14.4461946 52.1117003,14.4461946 Z M37.7236955,18.5997319 L43.8146584,12.6670627 C44.2048189,12.299197 44.4288825,11.9034628 44.4288825,11.3672708 C44.4288825,10.5189504 43.7856751,9.75646526 42.8359129,9.75646526 C42.2216888,9.75646526 41.8025449,9.98164361 41.4112697,10.4063612 L32.136597,19.8437865 L32.136597,11.47986 C32.136597,10.5189504 31.3819151,9.75646526 30.432153,9.75646526 C29.4545222,9.75646526 28.6998403,10.5189504 28.6998403,11.47986 L28.6998403,28.0928944 C28.6998403,29.053804 29.4545222,29.8174039 30.432153,29.8174039 C31.3819151,29.8174039 32.136597,29.053804 32.136597,28.0928944 L32.136597,23.9962091 L35.3214215,20.8883019 L41.6074647,28.9980668 C41.9697566,29.4785216 42.3889004,29.8174039 43.0599765,29.8174039 C44.0376073,29.8174039 44.7922892,29.0827874 44.7922892,28.1218778 C44.7922892,27.584571 44.5960942,27.2456887 44.3174081,26.8789379 L37.7236955,18.5997319 Z M7.67241838,19.0277937 C8.40814963,19.0277937 9.00453784,19.6130345 9.00453784,20.3331593 C9.00453784,21.0555136 8.40814963,21.6396396 7.67241838,21.6396396 C6.93668714,21.6396396 6.34029893,21.0555136 6.34029893,20.3331593 C6.34029893,19.6130345 6.93668714,19.0277937 7.67241838,19.0277937 Z M11.1771745,19.0277937 C11.9129057,19.0277937 12.5092939,19.6130345 12.5092939,20.3331593 C12.5092939,21.0555136 11.9129057,21.6396396 11.1771745,21.6396396 C10.4414433,21.6396396 9.84505505,21.0555136 9.84505505,20.3331593 C9.84505505,19.6130345 10.4414433,19.0277937 11.1771745,19.0277937 Z M9.55076255,23.5792947 C13.6842344,23.5792947 17.3216451,18.0379007 17.3216451,11.0194706 C17.3216451,4.00215513 14.6763569,3 9.55076255,3 C4.42516821,3 1.52906249,4.00215513 1.52906249,11.0194706 C1.52906249,18.0379007 5.00483525,23.5792947 9.55076255,23.5792947 Z M18.6660268,29.9846155 C18.1075399,29.0560335 17.4821683,28.3314497 16.8400756,27.7361762 C16.1957534,27.139788 15.5492017,26.6693659 14.9193711,26.1989438 C14.6217344,25.975995 14.3162945,25.770882 14.0052808,25.5847197 C14.3162945,25.3985574 14.6217344,25.1923297 14.9193711,24.9693809 C16.3573913,23.8958821 17.6081344,22.4478292 18.6660268,20.6887627 C19.0394661,20.0678501 18.8276647,19.2674637 18.1944899,18.9018276 C17.5602004,18.5361915 16.7442076,18.7424191 16.3696535,19.3633317 C15.4544484,20.8871872 14.4132772,22.0665867 13.3063361,22.8914975 C12.1202482,23.7710307 10.9531109,24.2068958 9.75364601,24.2760099 C9.64440107,24.2726657 9.53515613,24.2693214 9.42479644,24.2693214 C9.3155515,24.2693214 9.20519181,24.2726657 9.09594687,24.2760099 C7.89648199,24.2068958 6.73045944,23.7710307 5.54325675,22.8914975 C4.43631565,22.0665867 3.39625921,20.8871872 2.47993939,19.3633317 C2.10650004,18.7424191 1.28939247,18.5361915 0.656217697,18.9018276 C0.0219281846,19.2674637 -0.18875849,20.0678501 0.184680854,20.6898775 C1.2425732,22.4478292 2.49220158,23.8958821 3.93022174,24.9693809 C4.22785847,25.1923297 4.53329841,25.3985574 4.84542681,25.5847197 C4.53329841,25.770882 4.22785847,25.975995 3.93022174,26.1989438 C3.30150594,26.6693659 2.6538395,27.139788 2.01063203,27.7361762 C1.36853931,28.3314497 0.742053009,29.0560335 0.184680854,29.9846155 C-0.18875849,30.6055281 0.0219281846,31.4070293 0.656217697,31.7726654 C1.28939247,32.1383015 2.10650004,31.9320738 2.47993939,31.3111612 C2.90911595,30.5988396 3.34943995,30.0927457 3.84438642,29.6301268 C4.33821815,29.1697374 4.90004929,28.757282 5.5443715,28.2768272 C5.85872939,28.0438457 6.1708578,27.842077 6.48410095,27.6704063 C6.44619964,27.737291 6.40941308,27.8052904 6.37262652,27.8755193 C5.46856888,29.5743896 4.53775738,31.9320738 4.53329841,34.6174929 C4.53329841,35.3376177 5.12968661,35.9217437 5.86541786,35.9217437 C6.6011491,35.9217437 7.19753731,35.3376177 7.19753731,34.6174929 C7.19307833,32.5440685 7.94887497,30.5486761 8.73254022,29.0861316 C8.97109551,28.6402339 9.20965079,28.2444996 9.42479644,27.9111911 C9.65220428,28.2612208 9.90413649,28.6803647 10.1538392,29.1552457 C10.9252423,30.6111018 11.6565145,32.5752813 11.6520556,34.6174929 C11.6520556,35.3376177 12.2484438,35.9217437 12.9852898,35.9217437 C13.721021,35.9217437 14.3174092,35.3376177 14.3174092,34.6174929 C14.3129502,31.9320738 13.381024,29.5743896 12.4780811,27.8755193 C12.4401798,27.8052904 12.4033932,27.737291 12.3666067,27.6704063 C12.6787351,27.842077 12.9919782,28.0438457 13.3063361,28.2768272 C13.9495436,28.757282 14.5113747,29.1697374 15.0063212,29.6301268 C15.5012677,30.0927457 15.9404769,30.5988396 16.3696535,31.3100465 C16.6182415,31.7236166 17.0630245,31.953254 17.5189549,31.953254 C17.7485922,31.953254 17.9815738,31.8952873 18.1944899,31.7726654 C18.8276647,31.4070293 19.0394661,30.6055281 18.6660268,29.9846155 Z" fill-rule="nonzero"></path>
            </g>
        </g>
    </g>
</svg>