<?xml version="1.0" encoding="UTF-8"?>
<svg width="233px" height="33px" viewBox="0 0 233 33" version="1.1" xmlns="http://www.w3.org/2000/svg" xmlns:xlink="http://www.w3.org/1999/xlink">
    <!-- Generator: Sketch 52.2 (67145) - http://www.bohemiancoding.com/sketch -->
    <title>logo</title>
    <desc>Created with Sketch.</desc>
    <g id="Page-1" stroke="none" stroke-width="1" fill="none" fill-rule="evenodd">
        <g id="logo" transform="translate(0.000000, -3.000000)" fill="#233141">
            <path d="M140.92041,34.0922852 L143.228516,33.6958008 L143.228516,16.8735352 L140.92041,16.4770508 L140.92041,14.6787109 L145.621582,14.6787109 L145.876465,16.5478516 C146.386233,15.8492804 147.006914,15.3159198 147.738525,14.9477539 C148.470137,14.579588 149.317378,14.3955078 150.280273,14.3955078 C152.177744,14.3955078 153.652745,15.1483486 154.705322,16.6540527 C155.757899,18.1597569 156.28418,20.1492389 156.28418,22.6225586 L156.28418,22.9199219 C156.28418,25.1289173 155.755539,26.9107191 154.698242,28.2653809 C153.640945,29.6200426 152.182464,30.2973633 150.322754,30.2973633 C149.378739,30.2973633 148.550378,30.1392431 147.837646,29.822998 C147.124915,29.506753 146.518394,29.0371125 146.018066,28.4140625 L146.018066,33.6958008 L148.326172,34.0922852 L148.326172,35.890625 L140.92041,35.890625 L140.92041,34.0922852 Z M153.480469,22.6225586 C153.480469,20.8761306 153.140628,19.4459691 152.460938,18.3320312 C151.781247,17.2180934 150.771166,16.6611328 149.430664,16.6611328 C148.637691,16.6611328 147.958011,16.840493 147.391602,17.1992188 C146.825192,17.5579445 146.367352,18.048825 146.018066,18.671875 L146.018066,26.1342773 C146.367352,26.7667675 146.822832,27.255288 147.384521,27.5998535 C147.94621,27.944419 148.637691,28.1166992 149.458984,28.1166992 C150.780606,28.1166992 151.781247,27.6352587 152.460938,26.6723633 C153.140628,25.7094678 153.480469,24.4586665 153.480469,22.9199219 L153.480469,22.6225586 Z M168.815918,30 C168.730957,29.5846333 168.664877,29.211753 168.617676,28.8813477 C168.570475,28.5509424 168.537435,28.220542 168.518555,27.8901367 C167.980466,28.5792678 167.307865,29.1527484 166.500732,29.6105957 C165.693599,30.068443 164.832199,30.2973633 163.916504,30.2973633 C162.321118,30.2973633 161.108077,29.9079629 160.277344,29.1291504 C159.44661,28.3503379 159.03125,27.2529368 159.03125,25.8369141 C159.03125,24.3831308 159.618891,23.2621296 160.794189,22.473877 C161.969488,21.6856243 163.58137,21.2915039 165.629883,21.2915039 L168.504395,21.2915039 L168.504395,19.5073242 C168.504395,18.6105098 168.221194,17.9001491 167.654785,17.3762207 C167.088376,16.8522923 166.300135,16.590332 165.290039,16.590332 C164.591468,16.590332 163.975507,16.6800121 163.442139,16.859375 C162.90877,17.0387379 162.47689,17.2841781 162.146484,17.5957031 L161.849121,19.2099609 L159.696777,19.2099609 L159.696777,16.2363281 C160.395349,15.6793592 161.240229,15.2333187 162.231445,14.8981934 C163.222661,14.563068 164.298822,14.3955078 165.459961,14.3955078 C167.196949,14.3955078 168.60351,14.8391883 169.679688,15.7265625 C170.755865,16.6139367 171.293945,17.883618 171.293945,19.5356445 L171.293945,26.9130859 C171.293945,27.1113291 171.296305,27.3048493 171.301025,27.4936523 C171.305745,27.6824554 171.317545,27.8712556 171.336426,28.0600586 L172.469238,28.2158203 L172.469238,30 L168.815918,30 Z M164.327148,27.9609375 C165.252283,27.9609375 166.097164,27.7390973 166.861816,27.2954102 C167.626469,26.851723 168.173989,26.3183625 168.504395,25.6953125 L168.504395,23.1748047 L165.530762,23.1748047 C164.388503,23.1748047 163.484622,23.439125 162.819092,23.9677734 C162.153561,24.4964219 161.820801,25.1383426 161.820801,25.8935547 C161.820801,26.5638054 162.028481,27.075926 162.443848,27.4299316 C162.859214,27.7839373 163.486975,27.9609375 164.327148,27.9609375 Z M174.45166,34.0922852 L176.759766,33.6958008 L176.759766,16.8735352 L174.45166,16.4770508 L174.45166,14.6787109 L179.152832,14.6787109 L179.407715,16.5478516 C179.917483,15.8492804 180.538164,15.3159198 181.269775,14.9477539 C182.001387,14.579588 182.848628,14.3955078 183.811523,14.3955078 C185.708994,14.3955078 187.183995,15.1483486 188.236572,16.6540527 C189.289149,18.1597569 189.81543,20.1492389 189.81543,22.6225586 L189.81543,22.9199219 C189.81543,25.1289173 189.286789,26.9107191 188.229492,28.2653809 C187.172195,29.6200426 185.713714,30.2973633 183.854004,30.2973633 C182.909989,30.2973633 182.081628,30.1392431 181.368896,29.822998 C180.656165,29.506753 180.049644,29.0371125 179.549316,28.4140625 L179.549316,33.6958008 L181.857422,34.0922852 L181.857422,35.890625 L174.45166,35.890625 L174.45166,34.0922852 Z M187.011719,22.6225586 C187.011719,20.8761306 186.671878,19.4459691 185.992188,18.3320312 C185.312497,17.2180934 184.302416,16.6611328 182.961914,16.6611328 C182.168941,16.6611328 181.489261,16.840493 180.922852,17.1992188 C180.356442,17.5579445 179.898602,18.048825 179.549316,18.671875 L179.549316,26.1342773 C179.898602,26.7667675 180.354082,27.255288 180.915771,27.5998535 C181.47746,27.944419 182.168941,28.1166992 182.990234,28.1166992 C184.311856,28.1166992 185.312497,27.6352587 185.992188,26.6723633 C186.671878,25.7094678 187.011719,24.4586665 187.011719,22.9199219 L187.011719,22.6225586 Z M199.345215,30.2973633 C197.211741,30.2973633 195.514899,29.5870025 194.254639,28.1662598 C192.994378,26.745517 192.364258,24.9023551 192.364258,22.6367188 L192.364258,22.0136719 C192.364258,19.8329969 193.013258,18.018155 194.311279,16.5690918 C195.6093,15.1200286 197.145662,14.3955078 198.92041,14.3955078 C200.978363,14.3955078 202.538325,15.0185485 203.600342,16.2646484 C204.662359,17.5107484 205.193359,19.1721901 205.193359,21.2490234 L205.193359,22.9907227 L195.25293,22.9907227 L195.210449,23.0615234 C195.23877,24.5341871 195.61165,25.7448683 196.329102,26.6936035 C197.046553,27.6423387 198.051914,28.1166992 199.345215,28.1166992 C200.28923,28.1166992 201.117591,27.9821791 201.830322,27.7131348 C202.543054,27.4440905 203.159014,27.0735701 203.678223,26.6015625 L204.768555,28.4140625 C204.221026,28.942711 203.496505,29.3887514 202.594971,29.7521973 C201.693436,30.1156431 200.610195,30.2973633 199.345215,30.2973633 Z M198.92041,16.590332 C197.985835,16.590332 197.188154,16.9844524 196.527344,17.7727051 C195.866533,18.5609577 195.460613,19.5497987 195.30957,20.7392578 L195.337891,20.8100586 L202.403809,20.8100586 L202.403809,20.4418945 C202.403809,19.346837 202.111168,18.431156 201.525879,17.6948242 C200.94059,16.9584924 200.072109,16.590332 198.92041,16.590332 Z M207.94043,16.4770508 L207.94043,14.6787109 L212.740723,14.6787109 L213.009766,16.9018555 C213.444013,16.1183229 213.979733,15.5047223 214.616943,15.0610352 C215.254154,14.617348 215.983394,14.3955078 216.804688,14.3955078 C217.021811,14.3955078 217.246011,14.4120278 217.477295,14.4450684 C217.708579,14.4781089 217.885579,14.5135089 218.008301,14.5512695 L217.640137,17.1425781 L216.054199,17.0576172 C215.317867,17.0576172 214.699547,17.2298974 214.199219,17.5744629 C213.698891,17.9190284 213.31185,18.4028289 213.038086,19.0258789 L213.038086,27.8193359 L215.346191,28.2158203 L215.346191,30 L207.94043,30 L207.94043,28.2158203 L210.248535,27.8193359 L210.248535,16.8735352 L207.94043,16.4770508 Z M231.658691,19.4931641 L229.562988,19.4931641 L229.109863,17.6523438 C228.770018,17.3313786 228.342857,17.0741383 227.828369,16.8806152 C227.313881,16.6870921 226.73096,16.590332 226.07959,16.590332 C225.088374,16.590332 224.352053,16.8074523 223.870605,17.2416992 C223.389158,17.6759462 223.148438,18.1998667 223.148438,18.8134766 C223.148438,19.4176463 223.360838,19.8943667 223.785645,20.2436523 C224.210451,20.5929379 225.074212,20.9044583 226.376953,21.1782227 C228.312184,21.5935893 229.751786,22.1576299 230.695801,22.8703613 C231.639816,23.5830928 232.111816,24.5388937 232.111816,25.737793 C232.111816,27.0971748 231.561936,28.1969359 230.462158,29.0371094 C229.362381,29.8772828 227.925139,30.2973633 226.150391,30.2973633 C224.989252,30.2973633 223.946131,30.1628431 223.020996,29.8937988 C222.095861,29.6247545 221.26986,29.2353541 220.542969,28.7255859 L220.528809,25.2280273 L222.624512,25.2280273 L223.148438,27.28125 C223.469403,27.5738947 223.906003,27.7862949 224.458252,27.918457 C225.010501,28.0506192 225.574541,28.1166992 226.150391,28.1166992 C227.141607,28.1166992 227.918047,27.916099 228.479736,27.5148926 C229.041425,27.1136861 229.322266,26.5874056 229.322266,25.9360352 C229.322266,25.3224253 229.088625,24.8173848 228.621338,24.4208984 C228.15405,24.0244121 227.269049,23.6798517 225.966309,23.387207 C224.106599,22.9812805 222.704757,22.42904 221.760742,21.7304688 C220.816727,21.0318975 220.344727,20.0878966 220.344727,18.8984375 C220.344727,17.6523375 220.875727,16.5903364 221.937744,15.7124023 C222.999761,14.8344683 224.380363,14.3955078 226.07959,14.3955078 C227.240728,14.3955078 228.28385,14.546548 229.208984,14.8486328 C230.134119,15.1507177 230.90348,15.5707981 231.51709,16.1088867 L231.658691,19.4931641 Z" id="LearnMore-Copy-5"></path>
            <path d="M126.787307,24.3072227 C126.787307,26.2000586 125.082863,27.4998504 122.847801,27.4998504 C121.228077,27.4998504 119.970645,26.6805134 119.970645,25.239149 L119.970645,25.1834118 C119.970645,23.6294582 121.255946,22.6964172 123.435271,22.6964172 C124.775193,22.6964172 125.921151,22.9516937 126.787307,23.2905759 L126.787307,24.3072227 Z M128.408145,16.2264412 C127.373662,15.1529425 125.72607,14.5598985 123.518877,14.5598985 C121.590369,14.5598985 120.165726,14.8987808 118.768951,15.4360875 C118.266201,15.6333973 117.847058,16.1695893 117.847058,16.7916166 C117.847058,17.5830851 118.490265,18.2039976 119.271701,18.2039976 C119.440027,18.2039976 119.607239,18.176129 119.802319,18.1192771 C120.725327,17.7525262 121.786564,17.5262331 123.071864,17.5262331 C125.446269,17.5262331 126.73157,18.6565838 126.73157,20.7757128 L126.73157,21.1424636 C125.585613,20.7757128 124.412902,20.5215511 122.764195,20.5215511 C119.160226,20.5215511 116.673232,22.1033732 116.673232,25.3249843 L116.673232,25.3807215 C116.673232,28.3760395 119.132358,29.986845 121.898038,29.986845 C124.160969,29.986845 125.698202,29.0259354 126.703701,27.8108641 L126.703701,28.3760395 C126.703701,29.1385246 127.373662,29.8174039 128.352408,29.8174039 C129.274301,29.8174039 130,29.110656 130,28.1787297 L130,20.83145 C130,18.8828769 129.49725,17.29994 128.408145,16.2264412 Z M113.209721,8.90925959 C112.259959,8.90925959 111.533146,9.6717447 111.533146,10.6036709 L111.533146,28.1218778 C111.533146,29.0827874 112.287828,29.8174039 113.209721,29.8174039 C114.159483,29.8174039 114.914165,29.0827874 114.914165,28.1218778 L114.914165,10.6036709 C114.914165,9.6717447 114.159483,8.90925959 113.209721,8.90925959 Z M106.197979,22.3017977 C106.197979,24.8723981 104.465667,27.0205104 101.727855,27.0205104 C99.1015172,27.0205104 97.2298615,24.8445295 97.2298615,22.2449458 L97.2298615,22.1880938 C97.2298615,19.5896248 98.9621742,17.4415125 101.672118,17.4415125 C104.326324,17.4415125 106.197979,19.6163787 106.197979,22.2449458 L106.197979,22.3017977 Z M101.727855,14.4461946 C97.2019929,14.4461946 93.848842,17.9788193 93.848842,22.2449458 L93.848842,22.3017977 C93.848842,26.5389409 97.1741243,30.0147136 101.672118,30.0147136 C106.225848,30.0147136 109.577884,26.4832036 109.577884,22.2449458 L109.577884,22.1880938 C109.577884,17.9219673 106.253717,14.4461946 101.727855,14.4461946 Z M89.5191751,22.3017977 C89.5191751,24.8723981 87.7868625,27.0205104 85.0490504,27.0205104 C82.4227128,27.0205104 80.5510571,24.8445295 80.5510571,22.2449458 L80.5510571,22.1880938 C80.5510571,19.5896248 82.2833698,17.4415125 84.9933132,17.4415125 C87.6475194,17.4415125 89.5191751,19.6163787 89.5191751,22.2449458 L89.5191751,22.3017977 Z M85.0490504,14.4461946 C80.5231885,14.4461946 77.1700377,17.9788193 77.1700377,22.2449458 L77.1700377,22.3017977 C77.1700377,26.5389409 80.4953199,30.0147136 84.9933132,30.0147136 C89.5470437,30.0147136 92.8990799,26.4832036 92.8990799,22.2449458 L92.8990799,22.1880938 C92.8990799,17.9219673 89.5749123,14.4461946 85.0490504,14.4461946 Z M72.7288963,22.2449458 C72.7288963,25.1834118 70.829372,27.0205104 68.5107039,27.0205104 C66.2199043,27.0205104 64.2077908,25.0986912 64.2077908,22.2449458 L64.2077908,22.1880938 C64.2077908,19.3343484 66.2199043,17.4125292 68.5107039,17.4125292 C70.8015034,17.4125292 72.7288963,19.3064798 72.7288963,22.1880938 L72.7288963,22.2449458 Z M69.3200082,14.4461946 C66.9177342,14.4461946 65.3816166,15.6902492 64.2913966,17.2442028 L64.2913966,10.6036709 C64.2913966,9.64276134 63.5378295,8.90925959 62.5869526,8.90925959 C61.6371904,8.90925959 60.9114919,9.64276134 60.9114919,10.6036709 L60.9114919,28.1218778 C60.9114919,29.053804 61.665059,29.8174039 62.5869526,29.8174039 C63.5378295,29.8174039 64.2913966,29.053804 64.2913966,28.1218778 L64.2913966,27.3593927 C65.3258794,28.7427904 66.861997,29.986845 69.3200082,29.986845 C72.8125021,29.986845 76.165653,27.1888368 76.165653,22.2449458 L76.165653,22.1880938 C76.165653,17.2152194 72.7846335,14.4461946 69.3200082,14.4461946 Z M48.2557997,21.171447 C48.5634692,18.8538936 50.015981,17.2442028 52.0838317,17.2442028 C54.318894,17.2442028 55.6030795,18.9664828 55.8271431,21.171447 L48.2557997,21.171447 Z M52.1117003,14.4461946 C47.8923931,14.4461946 44.9037636,17.9498359 44.9037636,22.2170772 L44.9037636,22.2728144 C44.9037636,26.8789379 48.2000625,30.0147136 52.4739922,30.0147136 C54.7659065,30.0147136 56.4413672,29.2522285 57.7824046,28.0371572 C58.0343368,27.7829955 58.2294171,27.4151299 58.2294171,26.991527 C58.2294171,26.2000586 57.6430616,25.6070146 56.8883797,25.6070146 C56.4971044,25.6070146 56.2741556,25.7207185 56.0222233,25.9180283 C55.0724612,26.7094967 53.9554874,27.2178201 52.5308442,27.2178201 C50.351519,27.2178201 48.647075,25.8611763 48.2836683,23.4310337 L57.5315871,23.4310337 C58.3977435,23.4310337 59.123442,22.7532692 59.123442,21.7923596 C59.123442,18.3455702 56.8047739,14.4461946 52.1117003,14.4461946 Z M37.7236955,18.5997319 L43.8146584,12.6670627 C44.2048189,12.299197 44.4288825,11.9034628 44.4288825,11.3672708 C44.4288825,10.5189504 43.7856751,9.75646526 42.8359129,9.75646526 C42.2216888,9.75646526 41.8025449,9.98164361 41.4112697,10.4063612 L32.136597,19.8437865 L32.136597,11.47986 C32.136597,10.5189504 31.3819151,9.75646526 30.432153,9.75646526 C29.4545222,9.75646526 28.6998403,10.5189504 28.6998403,11.47986 L28.6998403,28.0928944 C28.6998403,29.053804 29.4545222,29.8174039 30.432153,29.8174039 C31.3819151,29.8174039 32.136597,29.053804 32.136597,28.0928944 L32.136597,23.9962091 L35.3214215,20.8883019 L41.6074647,28.9980668 C41.9697566,29.4785216 42.3889004,29.8174039 43.0599765,29.8174039 C44.0376073,29.8174039 44.7922892,29.0827874 44.7922892,28.1218778 C44.7922892,27.584571 44.5960942,27.2456887 44.3174081,26.8789379 L37.7236955,18.5997319 Z M7.67241838,19.0277937 C8.40814963,19.0277937 9.00453784,19.6130345 9.00453784,20.3331593 C9.00453784,21.0555136 8.40814963,21.6396396 7.67241838,21.6396396 C6.93668714,21.6396396 6.34029893,21.0555136 6.34029893,20.3331593 C6.34029893,19.6130345 6.93668714,19.0277937 7.67241838,19.0277937 Z M11.1771745,19.0277937 C11.9129057,19.0277937 12.5092939,19.6130345 12.5092939,20.3331593 C12.5092939,21.0555136 11.9129057,21.6396396 11.1771745,21.6396396 C10.4414433,21.6396396 9.84505505,21.0555136 9.84505505,20.3331593 C9.84505505,19.6130345 10.4414433,19.0277937 11.1771745,19.0277937 Z M9.55076255,23.5792947 C13.6842344,23.5792947 17.3216451,18.0379007 17.3216451,11.0194706 C17.3216451,4.00215513 14.6763569,3 9.55076255,3 C4.42516821,3 1.52906249,4.00215513 1.52906249,11.0194706 C1.52906249,18.0379007 5.00483525,23.5792947 9.55076255,23.5792947 Z M18.6660268,29.9846155 C18.1075399,29.0560335 17.4821683,28.3314497 16.8400756,27.7361762 C16.1957534,27.139788 15.5492017,26.6693659 14.9193711,26.1989438 C14.6217344,25.975995 14.3162945,25.770882 14.0052808,25.5847197 C14.3162945,25.3985574 14.6217344,25.1923297 14.9193711,24.9693809 C16.3573913,23.8958821 17.6081344,22.4478292 18.6660268,20.6887627 C19.0394661,20.0678501 18.8276647,19.2674637 18.1944899,18.9018276 C17.5602004,18.5361915 16.7442076,18.7424191 16.3696535,19.3633317 C15.4544484,20.8871872 14.4132772,22.0665867 13.3063361,22.8914975 C12.1202482,23.7710307 10.9531109,24.2068958 9.75364601,24.2760099 C9.64440107,24.2726657 9.53515613,24.2693214 9.42479644,24.2693214 C9.3155515,24.2693214 9.20519181,24.2726657 9.09594687,24.2760099 C7.89648199,24.2068958 6.73045944,23.7710307 5.54325675,22.8914975 C4.43631565,22.0665867 3.39625921,20.8871872 2.47993939,19.3633317 C2.10650004,18.7424191 1.28939247,18.5361915 0.656217697,18.9018276 C0.0219281846,19.2674637 -0.18875849,20.0678501 0.184680854,20.6898775 C1.2425732,22.4478292 2.49220158,23.8958821 3.93022174,24.9693809 C4.22785847,25.1923297 4.53329841,25.3985574 4.84542681,25.5847197 C4.53329841,25.770882 4.22785847,25.975995 3.93022174,26.1989438 C3.30150594,26.6693659 2.6538395,27.139788 2.01063203,27.7361762 C1.36853931,28.3314497 0.742053009,29.0560335 0.184680854,29.9846155 C-0.18875849,30.6055281 0.0219281846,31.4070293 0.656217697,31.7726654 C1.28939247,32.1383015 2.10650004,31.9320738 2.47993939,31.3111612 C2.90911595,30.5988396 3.34943995,30.0927457 3.84438642,29.6301268 C4.33821815,29.1697374 4.90004929,28.757282 5.5443715,28.2768272 C5.85872939,28.0438457 6.1708578,27.842077 6.48410095,27.6704063 C6.44619964,27.737291 6.40941308,27.8052904 6.37262652,27.8755193 C5.46856888,29.5743896 4.53775738,31.9320738 4.53329841,34.6174929 C4.53329841,35.3376177 5.12968661,35.9217437 5.86541786,35.9217437 C6.6011491,35.9217437 7.19753731,35.3376177 7.19753731,34.6174929 C7.19307833,32.5440685 7.94887497,30.5486761 8.73254022,29.0861316 C8.97109551,28.6402339 9.20965079,28.2444996 9.42479644,27.9111911 C9.65220428,28.2612208 9.90413649,28.6803647 10.1538392,29.1552457 C10.9252423,30.6111018 11.6565145,32.5752813 11.6520556,34.6174929 C11.6520556,35.3376177 12.2484438,35.9217437 12.9852898,35.9217437 C13.721021,35.9217437 14.3174092,35.3376177 14.3174092,34.6174929 C14.3129502,31.9320738 13.381024,29.5743896 12.4780811,27.8755193 C12.4401798,27.8052904 12.4033932,27.737291 12.3666067,27.6704063 C12.6787351,27.842077 12.9919782,28.0438457 13.3063361,28.2768272 C13.9495436,28.757282 14.5113747,29.1697374 15.0063212,29.6301268 C15.5012677,30.0927457 15.9404769,30.5988396 16.3696535,31.3100465 C16.6182415,31.7236166 17.0630245,31.953254 17.5189549,31.953254 C17.7485922,31.953254 17.9815738,31.8952873 18.1944899,31.7726654 C18.8276647,31.4070293 19.0394661,30.6055281 18.6660268,29.9846155 Z" fill-rule="nonzero"></path>
        </g>
    </g>
</svg>